<svg version="1.1" viewBox="0.0 0.0 960.0 720.0" fill="none" stroke="none" stroke-linecap="square" stroke-miterlimit="10" xmlns:xlink="http://www.w3.org/1999/xlink" xmlns="http://www.w3.org/2000/svg"><clipPath id="p.0"><path d="m0 0l960.0 0l0 720.0l-960.0 0l0 -720.0z" clip-rule="nonzero"/></clipPath><g clip-path="url(#p.0)"><path fill="#ffffff" d="m0 0l960.0 0l0 720.0l-960.0 0z" fill-rule="evenodd"/><path fill="#6fa8dc" d="m285.74802 284.40683l58.275604 0l0 248.29135l-58.275604 0z" fill-rule="evenodd"/><path fill="#5886af" d="m344.02362 284.40683l19.425201 -19.425201l0 248.29132l-19.425201 19.425232z" fill-rule="evenodd"/><path fill="#8bb9e3" d="m285.74802 284.40683l19.425201 -19.425201l58.275604 0l-19.425201 19.425201z" fill-rule="evenodd"/><path fill="#000000" fill-opacity="0.0" d="m285.74802 284.40683l19.425201 -19.425201l58.275604 0l0 248.29132l-19.425201 19.425232l-58.275604 0zm0 0l58.275604 0l19.425201 -19.425201m-19.425201 19.425201l0 248.29135" fill-rule="evenodd"/><path stroke="#000000" stroke-width="1.0" stroke-linejoin="round" stroke-linecap="butt" d="m285.74802 284.40683l19.425201 -19.425201l58.275604 0l0 248.29132l-19.425201 19.425232l-58.275604 0zm0 0l58.275604 0l19.425201 -19.425201m-19.425201 19.425201l0 248.29135" fill-rule="evenodd"/><path fill="#b6d7a8" d="m363.44882 264.979l58.275574 0l0 267.72443l-58.275574 0z" fill-rule="evenodd"/><path fill="#91ab86" d="m421.7244 264.979l19.425201 -19.425201l0 267.7244l-19.425201 19.425232z" fill-rule="evenodd"/><path fill="#c4dfb9" d="m363.44882 264.979l19.425201 -19.425201l58.275574 0l-19.425201 19.425201z" fill-rule="evenodd"/><path fill="#000000" fill-opacity="0.0" d="m363.44882 264.979l19.425201 -19.425201l58.275574 0l0 267.7244l-19.425201 19.425232l-58.275574 0zm0 0l58.275574 0l19.425201 -19.425201m-19.425201 19.425201l0 267.72443" fill-rule="evenodd"/><path stroke="#000000" stroke-width="1.0" stroke-linejoin="round" stroke-linecap="butt" d="m363.44882 264.979l19.425201 -19.425201l58.275574 0l0 267.7244l-19.425201 19.425232l-58.275574 0zm0 0l58.275574 0l19.425201 -19.425201m-19.425201 19.425201l0 267.72443" fill-rule="evenodd"/><path fill="#ffe599" d="m441.1496 244.33858l58.275604 0l0 288.38586l-58.275604 0z" fill-rule="evenodd"/><path fill="#cbb77a" d="m499.4252 244.33858l19.425201 -19.425186l0 288.3858l-19.425201 19.425232z" fill-rule="evenodd"/><path fill="#ffeaad" d="m441.1496 244.33858l19.425201 -19.425186l58.275604 0l-19.425201 19.425186z" fill-rule="evenodd"/><path fill="#000000" fill-opacity="0.0" d="m441.1496 244.33858l19.425201 -19.425186l58.275604 0l0 288.3858l-19.425201 19.425232l-58.275604 0zm0 0l58.275604 0l19.425201 -19.425186m-19.425201 19.425186l0 288.38586" fill-rule="evenodd"/><path stroke="#000000" stroke-width="1.0" stroke-linejoin="round" stroke-linecap="butt" d="m441.1496 244.33858l19.425201 -19.425186l58.275604 0l0 288.3858l-19.425201 19.425232l-58.275604 0zm0 0l58.275604 0l19.425201 -19.425186m-19.425201 19.425186l0 288.38586" fill-rule="evenodd"/><path fill="#b4a7d6" d="m518.8504 226.12599l58.275574 0l0 306.55908l-58.275574 0z" fill-rule="evenodd"/><path fill="#8f85ab" d="m577.126 226.12599l19.425232 -19.425201l0 306.55902l-19.425232 19.425232z" fill-rule="evenodd"/><path fill="#c3b8de" d="m518.8504 226.12599l19.42517 -19.425201l58.275635 0l-19.425232 19.425201z" fill-rule="evenodd"/><path fill="#000000" fill-opacity="0.0" d="m518.8504 226.12599l19.42517 -19.425201l58.275635 0l0 306.55902l-19.425232 19.425232l-58.275574 0zm0 0l58.275574 0l19.425232 -19.425201m-19.425232 19.425201l0 306.55908" fill-rule="evenodd"/><path stroke="#000000" stroke-width="1.0" stroke-linejoin="round" stroke-linecap="butt" d="m518.8504 226.12599l19.42517 -19.425201l58.275635 0l0 306.55902l-19.425232 19.425232l-58.275574 0zm0 0l58.275574 0l19.425232 -19.425201m-19.425232 19.425201l0 306.55908" fill-rule="evenodd"/><path fill="#dd7e6b" d="m596.5512 206.70079l58.275574 0l0 325.99213l-58.275574 0z" fill-rule="evenodd"/><path fill="#b06455" d="m654.8268 206.70079l19.42517 -19.425201l0 325.99213l-19.42517 19.425232z" fill-rule="evenodd"/><path fill="#e39788" d="m596.5512 206.70079l19.42517 -19.425201l58.275574 0l-19.42517 19.425201z" fill-rule="evenodd"/><path fill="#000000" fill-opacity="0.0" d="m596.5512 206.70079l19.42517 -19.425201l58.275574 0l0 325.99213l-19.42517 19.425232l-58.275574 0zm0 0l58.275574 0l19.42517 -19.425201m-19.42517 19.425201l0 325.99213" fill-rule="evenodd"/><path stroke="#000000" stroke-width="1.0" stroke-linejoin="round" stroke-linecap="butt" d="m596.5512 206.70079l19.42517 -19.425201l58.275574 0l0 325.99213l-19.42517 19.425232l-58.275574 0zm0 0l58.275574 0l19.42517 -19.425201m-19.42517 19.425201l0 325.99213" fill-rule="evenodd"/></g></svg>